<svg xmlns="http://www.w3.org/2000/svg" viewBox="0 0 362.333 89.621" height="89.621" width="362.333"><g fill="#FFF" clip-rule="evenodd" fill-rule="evenodd"><path d="M270.7 58.052c0 1.933-.605 3.595-1.815 4.985s-2.656 2.087-4.338 2.087-3.127-.696-4.338-2.087c-1.209-1.391-1.814-3.053-1.814-4.985 0-1.98.605-3.653 1.814-5.021 1.211-1.367 2.656-2.051 4.338-2.051s3.128.684 4.338 2.051c1.21 1.368 1.815 3.041 1.815 5.021zM237.605 17.883c0 1.462-.451 2.711-1.354 3.749s-1.989 1.556-3.261 1.556c-1.23 0-2.308-.519-3.23-1.556-.922-1.037-1.385-2.287-1.385-3.749 0-1.461.463-2.71 1.385-3.748.923-1.037 2-1.556 3.23-1.556 1.271 0 2.358.519 3.261 1.556.903 1.038 1.354 2.287 1.354 3.748zM181.009 79.197c0 1.462-.461 2.711-1.384 3.748-.923 1.038-1.999 1.557-3.23 1.557-1.271 0-2.358-.519-3.26-1.557-.903-1.037-1.354-2.286-1.354-3.748s.451-2.711 1.354-3.748c.901-1.037 1.989-1.556 3.26-1.556 1.231 0 2.308.519 3.23 1.556s1.384 2.286 1.384 3.748zM194.175 79.197c0 1.462-.45 2.711-1.354 3.748-.901 1.038-1.989 1.557-3.26 1.557-1.271 0-2.359-.519-3.262-1.557-.901-1.037-1.354-2.286-1.354-3.748s.452-2.711 1.354-3.748c.902-1.037 1.99-1.556 3.262-1.556 1.271 0 2.358.519 3.26 1.556.904 1.037 1.354 2.286 1.354 3.748zM121.281 65.125H87.32l5.353-10.608h8.982l.061-39.249c0-2.923.933-5.421 2.8-7.496 1.866-2.075 4.071-3.111 6.614-3.111 0-.519.02 3.441.062 11.881v37.976H124.29c.493-4.714 1.867-8.722 4.123-12.022 2.625-3.771 5.865-5.657 9.72-5.657h4.122c2.543 0 5.024-.495 7.444-1.485 3.24-1.32 4.86-3.182 4.86-5.586v24.751H167.657V39.17l9.229-6.082v8.204c1.845-2.97 4.348-4.456 7.505-4.456h7.076c1.147 0 2.163.448 3.045 1.344s1.384 2.027 1.508 3.395c1.846-3.159 4.409-4.738 7.69-4.738h6.952c1.271 0 2.358.519 3.261 1.556.901 1.037 1.354 2.286 1.354 3.748v12.376H228.374V31.533c2.544 0 4.718 1.037 6.522 3.112 1.805 2.074 2.707 4.573 2.707 7.496v15.347c-.082 2.026.41 3.795 1.477 5.304 1.107 1.649 2.543 2.475 4.307 2.475 2.584 0 4.491-1.838 5.722-5.516.861-2.641 1.292-5.752 1.292-9.335 2.83.943 4.245 4.267 4.245 9.971 0 4.291-1.107 7.897-3.322 10.82s-5.168 4.385-8.859 4.385c-2.953 0-5.558-.942-7.813-2.828-2.256-1.887-3.917-4.433-4.983-7.638H206.05V47.444h-9.967v17.681H182.61l.061-10.608h4.185v-7.072h-9.967v17.609l-12.3.043v.028h-43.308zm24.173-10.609V50.98a138.843 138.843 0 0 1-.062-3.536h-7.137c-1.23 0-2.297.873-3.199 2.617-.698 1.32-1.169 2.805-1.416 4.455h11.814zM90.956 19.935l-21.41 13.648c-.738.519-1.107 1.155-1.107 1.909 0 .896.43 1.344 1.292 1.344h4.184c2.994 0 5.393 1.038 7.198 3.112 1.805 2.075 2.708 4.832 2.708 8.274v16.902H43.938c-.528 2.279-1.465 4.307-2.81 6.081-2.215 2.923-5.168 4.385-8.859 4.385-2.954 0-5.558-.942-7.814-2.828-2.256-1.887-3.917-4.433-4.983-7.638H6.92l5.353-10.608h5.906V31.533c2.543 0 4.717 1.037 6.522 3.112 1.804 2.074 2.706 4.573 2.706 7.496v15.347c-.081 2.026.411 3.795 1.478 5.304 1.107 1.649 2.543 2.475 4.307 2.475 2.583 0 4.491-1.838 5.721-5.516.861-2.641 1.292-5.752 1.292-9.335 1.656.552 2.827 1.919 3.514 4.102h30.995v-7.143H50.042v-7.567l40.914-22.983v3.11zM27.407 17.883c0 1.462-.451 2.711-1.353 3.749-.903 1.037-1.989 1.556-3.261 1.556-1.23 0-2.307-.519-3.23-1.556s-1.384-2.287-1.384-3.749c0-1.461.461-2.71 1.384-3.748.923-1.037 2-1.556 3.23-1.556 1.272 0 2.358.519 3.261 1.556.902 1.038 1.353 2.287 1.353 3.748zM307.725 64.654h-17.138c-3.773 0-7.198-1.037-10.274-3.112-3.568-2.357-5.455-5.563-5.66-9.618-.041-.471-.062-3.889-.062-10.254 0-3.63 2.317-5.445 6.952-5.445.533 0 1.251.023 2.153.07a43.19 43.19 0 0 0 1.846.071c2.543 0 5.024-.495 7.444-1.485 3.24-1.32 4.86-3.182 4.86-5.587v17.68h-14.027v3.607c0 1.132.972 2.006 2.892 2.687 4.861 1.725 18.626 1.746 22.702-2.022v10.373l4.178-7.514h7.593c1.22-5.657 4.994-9.971 11.321-12.941 1.718-.848 3.096-2.204 4.136-4.066 1.04-1.862 1.56-3.83 1.56-5.905 0 2.027.509 3.984 1.525 5.87 1.018 1.886 2.361 3.229 4.034 4.031 6.463 3.111 10.305 7.449 11.524 13.012.84 4.545.616 7.688-.678 10.608-1.266 3.488-3.39 6.341-6.373 8.557-2.982 2.216-6.327 3.324-10.033 3.324s-7.051-1.108-10.034-3.324c-2.982-2.216-5.106-5.068-6.372-8.557h-14.102l.033-.06zm37.796-6.236c0-2.122-.712-3.925-2.135-5.41-1.424-1.485-3.152-2.228-5.187-2.228-1.989 0-3.706.742-5.152 2.228s-2.17 3.288-2.17 5.41c0 2.074.724 3.854 2.17 5.339 1.446 1.485 3.163 2.228 5.152 2.228 2.034 0 3.763-.742 5.187-2.228 1.424-1.484 2.135-3.264 2.135-5.339z"/></g></svg>