<svg id="svg_youtube" version="1.1" viewBox="0 0 24 24" xmlns="http://www.w3.org/2000/svg">
 <path d="m23.844 6.9717c0-2.1097-1.5518-3.8069-3.4692-3.8069-2.5972-0.1219-5.246-0.16878-7.9511-0.16878h-0.84387c-2.7004 0-5.3539 0.046881-7.9511 0.16878-1.9128 0-3.4645 1.7065-3.4645 3.8163-0.1172 1.669-0.16877 3.3381-0.16409 5.0071-0.004688 1.669 0.046882 3.3381 0.1594 5.0118 0 2.1097 1.5518 3.8209 3.4645 3.8209 2.7285 0.12658 5.5273 0.18284 8.373 0.17815 2.8504 0.0094 5.6398-0.04688 8.373-0.17815 1.9175 0 3.4692-1.7112 3.4692-3.8209 0.11252-1.6737 0.16408-3.3427 0.1594-5.0165a68.888 68.89 0 0 0-0.15471-5.0118zm-14.139 9.6157v-9.2125l6.7978 4.6039z"/>
</svg>
