<svg id="svg_linkedin" version="1.1" viewBox="0 0 24 24" xmlns="http://www.w3.org/2000/svg">
 <g transform="matrix(.062516 0 0 .062516 -4.001 -3.901)">
  <path d="m417.2 64h-320.4c-17.5 0-32.8 12.6-32.8 29.9v321.1c0 17.4 15.3 32.9 32.8 32.9h320.3c17.6 0 30.8-15.6 30.8-32.9v-321.1c0.1-17.3-13.2-29.9-30.7-29.9zm-234.2 320h-55v-171h55zm-25.6-197h-0.4c-17.6 0-29-13.1-29-29.5 0-16.7 11.7-29.5 29.7-29.5s29 12.7 29.4 29.5c0 16.4-11.4 29.5-29.7 29.5zm226.6 197h-55v-93.5c0-22.4-8-37.7-27.9-37.7-15.2 0-24.2 10.3-28.2 20.3-1.5 3.6-1.9 8.5-1.9 13.5v97.4h-55v-171h55v23.8c8-11.4 20.5-27.8 49.6-27.8 36.1 0 63.4 23.8 63.4 75.1z"/>
 </g>
</svg>
