<svg id="svg_instagram" version="1.1" viewBox="0 0 24 24" xmlns="http://www.w3.org/2000/svg">
 <g transform="matrix(.0625 0 0 .0625 -4 -4)">
  <path d="m336 96c21.2 0 41.3 8.4 56.5 23.5s23.5 35.3 23.5 56.5v160c0 21.2-8.4 41.3-23.5 56.5s-35.3 23.5-56.5 23.5h-160c-21.2 0-41.3-8.4-56.5-23.5s-23.5-35.3-23.5-56.5v-160c0-21.2 8.4-41.3 23.5-56.5s35.3-23.5 56.5-23.5h160m0-32h-160c-61.6 0-112 50.4-112 112v160c0 61.6 50.4 112 112 112h160c61.6 0 112-50.4 112-112v-160c0-61.6-50.4-112-112-112z"/>
  <path d="m360 176c-13.3 0-24-10.7-24-24s10.7-24 24-24c13.2 0 24 10.7 24 24s-10.8 24-24 24z"/>
  <path d="m256 192c35.3 0 64 28.7 64 64s-28.7 64-64 64-64-28.7-64-64 28.7-64 64-64m0-32c-53 0-96 43-96 96s43 96 96 96 96-43 96-96-43-96-96-96z"/>
 </g>
</svg>
