<svg id="svg_whatsapp" version="1.1" viewBox="0 0 24 24" xmlns="http://www.w3.org/2000/svg">
 <path d="m12.218 0c-6.5066 0-11.782 5.2339-11.782 11.691 0 2.2088 0.61779 4.275 1.6907 6.0368l-2.1265 6.2722 6.5231-2.0722c1.6879 0.92598 3.6292 1.4542 5.6945 1.4542 6.5075 0 11.782-5.2347 11.782-11.691 0-6.4571-5.2749-11.691-11.782-11.691zm5.8587 16.13c-0.27718 0.68716-1.5308 1.3143-2.0839 1.3431-0.55254 0.0293-0.56829 0.42825-3.5807-0.88039-3.0121-1.309-4.8242-4.4916-4.9671-4.6966-0.14304-0.20421-1.1668-1.6632-1.1116-3.1315 0.05561-1.4686 0.85966-2.1614 1.1466-2.4496 0.28661-0.28859 0.61532-0.34029 0.816-0.34355 0.23721-0.0039 0.39086-0.0071 0.56641-5.36e-4 0.17555 0.0065 0.43886-0.0367 0.66696 0.57l0.84354 2.2495c0.06975 0.15214 0.11293 0.32818 0.0055 0.52339-0.10779 0.1957-0.16296 0.31795-0.31929 0.48659-0.15723 0.16864-0.33075 0.37725-0.471 0.50625-0.15643 0.14277-0.31982 0.2985-0.15536 0.60375s0.73141 1.3048 1.5954 2.1287c1.1103 1.0591 2.0678 1.4105 2.3624 1.5706 0.29545 0.16093 0.47175 0.14304 0.65496-0.04982 0.18236-0.19286 0.78429-0.84354 0.99621-1.1341 0.21188-0.29132 0.41036-0.23427 0.68261-0.12482 0.27204 0.10993 1.7227 0.88693 2.0182 1.0473 0.29464 0.16018 0.49248 0.24268 0.5625 0.36964 0.07055 0.1275 0.04821 0.72482-0.22875 1.4121z"/>
</svg>
