<svg id="svg_medium" version="1.1" viewBox="0 0 24 24" xmlns="http://www.w3.org/2000/svg">
 <path d="m0 0v24h24v-24zm19.939 5.6839-1.2857 1.2321c-0.1125 0.08572-0.16607 0.225-0.14464 0.35893v9.0696c-0.02143 0.13929 0.03214 0.27857 0.14464 0.35893l1.2589 1.2321v0.27322h-6.3214v-0.2625l1.3018-1.2643c0.12857-0.12857 0.12857-0.16607 0.12857-0.35893v-7.3339l-3.6214 9.1929h-0.4875l-4.2161-9.1929v6.1607c-0.0375 0.25714 0.053571 0.51964 0.23571 0.70714l1.6929 2.0518v0.27321h-4.8107v-0.27321l1.6929-2.0518c0.18214-0.1875 0.2625-0.45 0.21964-0.70714v-7.125c0.021429-0.19821-0.053571-0.39107-0.20357-0.525l-1.5054-1.8161v-0.27322h4.6768l3.6107 7.9286 3.1768-7.9232h4.4571z" style="stroke-width:.053571"/>
</svg>
