<svg id="svg_search" version="1.1" viewBox="0 0 24 24" xml:space="preserve" xmlns="http://www.w3.org/2000/svg">
<path d="m23.713 22.263-6.6732-6.7357c1.3059-1.6371 2.0932-3.7115 2.0932-5.9672 0-5.2799-4.2801-9.56-9.5662-9.56-5.2861 0-9.5662 4.2864-9.5662 9.5663 0 5.2799 4.2801 9.56 9.5662 9.56 2.2869 0 4.3801-0.79979 6.0297-2.1369l6.6295 6.692c0.19995 0.21244 0.47488 0.31867 0.74356 0.31867 0.25618 0 0.51236-0.09373 0.70606-0.28118 0.41239-0.39365 0.42489-1.0435 0.03749-1.4559zm-14.146-5.1924c-2.0057 0-3.8927-0.78105-5.3111-2.1994-1.4184-1.4184-2.1994-3.3054-2.1994-5.3049 0-2.0057 0.78104-3.8927 2.1994-5.3049 1.4184-1.4184 3.3054-2.1994 5.3111-2.1994 2.0057 0 3.8927 0.78105 5.3111 2.1994s2.1994 3.3054 2.1994 5.3049c0 2.0057-0.78104 3.8927-2.1994 5.3049-1.4184 1.4184-3.3054 2.1994-5.3111 2.1994z" style="stroke-width:.062484"/>
</svg>
