<svg id="svg_twitter" version="1.1" viewBox="0 0 24 24" xmlns="http://www.w3.org/2000/svg">
 <path d="m24 4.5841c-0.88493 0.39162-1.8309 0.65609-2.8277 0.77815 1.0172-0.61031 1.8004-1.5766 2.1666-2.7261-0.95105 0.56454-2.0038 0.9765-3.1278 1.1952-0.90019-0.96124-2.1818-1.5614-3.5957-1.5614-2.7209 0-4.9231 2.2073-4.9231 4.9283 0 0.38653 0.04069 0.76289 0.12714 1.124-4.0941-0.20344-7.7254-2.1666-10.151-5.1521-0.42212 0.72729-0.66624 1.5766-0.66624 2.4769 0 1.7089 0.87476 3.2194 2.1971 4.1044a4.8092 4.8093 0 0 1-2.2378-0.6154v0.06103c0 2.3904 1.6987 4.379 3.9517 4.8316a4.9566 4.9568 0 0 1-1.2969 0.17292c-0.31532 0-0.62556-0.03052-0.92562-0.09155 0.62556 1.9581 2.4463 3.3821 4.6027 3.4228-1.6834 1.3223-3.8093 2.1107-6.1182 2.1107-0.39669 0-0.7883-0.02543-1.1748-0.0712 2.1716 1.4139 4.7603 2.2276 7.5372 2.2276 9.068 0 14.022-7.5119 14.022-14.027a13.1 13.1 0 0 0-0.01526-0.63574c0.96122-0.69677 1.7953-1.5614 2.4565-2.5531z"/>
</svg>
